{
  "accessors": [
    {
      "bufferView": 2,
      "componentType": 5126,
      "count": 24,
      "max": [
        1.0,
        1.0,
        1.0
      ],
      "min": [
        -1.0,
        -1.0,
        -1.0
      ],
      "type": "VEC3"
    },
    {
      "bufferView": 2,
      "byteOffset": 288,
      "componentType": 5126,
      "count": 24,
      "max": [
        1.0,
        1.0,
        1.0
      ],
      "min": [
        -1.0,
        -1.0,
        -1.0
      ],
      "type": "VEC3"
    },
    {
      "bufferView": 1,
      "componentType": 5126,
      "count": 24,
      "max": [
        0.875,
        1.0
      ],
      "min": [
        0.125,
        0.0
      ],
      "type": "VEC2"
    },
    {
      "bufferView": 0,
      "componentType": 5125,
      "count": 36,
      "type": "SCALAR"
    },
    {
      "bufferView": 2,
      "byteOffset": 576,
      "componentType": 5126,
      "count": 312,
      "max": [
        2.0672714710235596,
        1.3703405857086182,
        3.386335849761963
      ],
      "min": [
        -2.767239570617676,
        -3.45717191696167,
        -1.5909595489501953
      ],
      "type": "VEC3"
    },
    {
      "bufferView": 2,
      "byteOffset": 4320,
      "componentType": 5126,
      "count": 312,
      "max": [
        1.0,
        1.0,
        1.0
      ],
      "min": [
        -1.0,
        -1.0,
        -1.0
      ],
      "type": "VEC3"
    },
    {
      "bufferView": 1,
      "byteOffset": 192,
      "componentType": 5126,
      "count": 312,
      "max": [
        0.875,
        1.0
      ],
      "min": [
        0.125,
        0.0
      ],
      "type": "VEC2"
    },
    {
      "bufferView": 0,
      "byteOffset": 144,
      "componentType": 5125,
      "count": 468,
      "type": "SCALAR"
    },
    {
      "bufferView": 2,
      "byteOffset": 8064,
      "componentType": 5126,
      "count": 336,
      "max": [
        2.340064764022827,
        1.9208996295928955,
        2.111095666885376
      ],
      "min": [
        -2.4519505500793457,
        -3.479585647583008,
        -2.8777871131896973
      ],
      "type": "VEC3"
    },
    {
      "bufferView": 2,
      "byteOffset": 12096,
      "componentType": 5126,
      "count": 336,
      "max": [
        1.0,
        1.0,
        1.0
      ],
      "min": [
        -1.0,
        -1.0,
        -1.0
      ],
      "type": "VEC3"
    },
    {
      "bufferView": 1,
      "byteOffset": 2688,
      "componentType": 5126,
      "count": 336,
      "max": [
        0.875,
        1.0
      ],
      "min": [
        0.125,
        0.0
      ],
      "type": "VEC2"
    },
    {
      "bufferView": 0,
      "byteOffset": 2016,
      "componentType": 5125,
      "count": 504,
      "type": "SCALAR"
    },
    {
      "bufferView": 2,
      "byteOffset": 16128,
      "componentType": 5126,
      "count": 312,
      "max": [
        2.0672714710235596,
        1.3703405857086182,
        3.386335849761963
      ],
      "min": [
        -2.767239570617676,
        -3.45717191696167,
        -1.5909595489501953
      ],
      "type": "VEC3"
    },
    {
      "bufferView": 2,
      "byteOffset": 19872,
      "componentType": 5126,
      "count": 312,
      "max": [
        1.0,
        1.0,
        1.0
      ],
      "min": [
        -1.0,
        -1.0,
        -1.0
      ],
      "type": "VEC3"
    },
    {
      "bufferView": 1,
      "byteOffset": 5376,
      "componentType": 5126,
      "count": 312,
      "max": [
        0.875,
        1.0
      ],
      "min": [
        0.125,
        0.0
      ],
      "type": "VEC2"
    },
    {
      "bufferView": 0,
      "byteOffset": 4032,
      "componentType": 5125,
      "count": 468,
      "type": "SCALAR"
    },
    {
      "bufferView": 2,
      "byteOffset": 23616,
      "componentType": 5126,
      "count": 336,
      "max": [
        2.340064764022827,
        1.9208996295928955,
        2.111095666885376
      ],
      "min": [
        -2.4519505500793457,
        -3.479585647583008,
        -2.8777871131896973
      ],
      "type": "VEC3"
    },
    {
      "bufferView": 2,
      "byteOffset": 27648,
      "componentType": 5126,
      "count": 336,
      "max": [
        1.0,
        1.0,
        1.0
      ],
      "min": [
        -1.0,
        -1.0,
        -1.0
      ],
      "type": "VEC3"
    },
    {
      "bufferView": 1,
      "byteOffset": 7872,
      "componentType": 5126,
      "count": 336,
      "max": [
        0.875,
        1.0
      ],
      "min": [
        0.125,
        0.0
      ],
      "type": "VEC2"
    },
    {
      "bufferView": 0,
      "byteOffset": 5904,
      "componentType": 5125,
      "count": 504,
      "type": "SCALAR"
    },
    {
      "bufferView": 3,
      "componentType": 5126,
      "count": 256,
      "max": [
        14.625
      ],
      "min": [
        0.0
      ],
      "type": "SCALAR"
    },
    {
      "bufferView": 4,
      "componentType": 5126,
      "count": 256,
      "max": [
        -1.5329071283340454,
        1.1204969882965088,
        0.1967397928237915
      ],
      "min": [
        -1.9540746212005615,
        0.7057669162750244,
        -0.19655783474445343
      ],
      "type": "VEC3"
    },
    {
      "bufferView": 3,
      "byteOffset": 1024,
      "componentType": 5126,
      "count": 352,
      "max": [
        14.625
      ],
      "min": [
        0.0
      ],
      "type": "SCALAR"
    },
    {
      "bufferView": 5,
      "componentType": 5126,
      "count": 352,
      "max": [
        0.8217750787734985,
        0.9843866229057312,
        0.8555047512054443,
        0.9945713877677917
      ],
      "min": [
        -0.7581006288528442,
        -0.984710156917572,
        -0.9076135158538818,
        0.0005960976122878492
      ],
      "type": "VEC4"
    },
    {
      "bufferView": 3,
      "byteOffset": 2432,
      "componentType": 5126,
      "count": 2,
      "max": [
        14.624990463256836
      ],
      "min": [
        0.0
      ],
      "type": "SCALAR"
    },
    {
      "bufferView": 4,
      "byteOffset": 3072,
      "componentType": 5126,
      "count": 2,
      "max": [
        1.0000001192092896,
        1.0,
        1.0
      ],
      "min": [
        1.0000001192092896,
        1.0,
        1.0
      ],
      "type": "VEC3"
    },
    {
      "bufferView": 3,
      "byteOffset": 2440,
      "componentType": 5126,
      "count": 253,
      "max": [
        10.5
      ],
      "min": [
        0.0
      ],
      "type": "SCALAR"
    },
    {
      "bufferView": 4,
      "byteOffset": 3096,
      "componentType": 5126,
      "count": 253,
      "max": [
        -0.874199628829956,
        1.6989538669586182,
        0.9104306697845459
      ],
      "min": [
        -1.3250393867492676,
        1.2597891092300415,
        0.5226231217384338
      ],
      "type": "VEC3"
    },
    {
      "bufferView": 3,
      "byteOffset": 3452,
      "componentType": 5126,
      "count": 253,
      "max": [
        10.5
      ],
      "min": [
        0.0
      ],
      "type": "SCALAR"
    },
    {
      "bufferView": 5,
      "byteOffset": 5632,
      "componentType": 5126,
      "count": 253,
      "max": [
        0.9375327229499817,
        0.9067956805229187,
        0.6849485039710999,
        0.9560624361038208
      ],
      "min": [
        -0.898733913898468,
        -0.9598631262779236,
        -0.6885817646980286,
        0.00225162785500288
      ],
      "type": "VEC4"
    },
    {
      "bufferView": 3,
      "byteOffset": 4464,
      "componentType": 5126,
      "count": 2,
      "max": [
        10.499990463256836
      ],
      "min": [
        0.0
      ],
      "type": "SCALAR"
    },
    {
      "bufferView": 4,
      "byteOffset": 6132,
      "componentType": 5126,
      "count": 2,
      "max": [
        1.3148294687271118,
        1.3148295879364014,
        1.3148293495178223
      ],
      "min": [
        1.3148294687271118,
        1.3148295879364014,
        1.3148293495178223
      ],
      "type": "VEC3"
    },
    {
      "bufferView": 3,
      "byteOffset": 4472,
      "componentType": 5126,
      "count": 352,
      "max": [
        14.625
      ],
      "min": [
        0.0
      ],
      "type": "SCALAR"
    },
    {
      "bufferView": 5,
      "byteOffset": 9680,
      "componentType": 5126,
      "count": 352,
      "max": [
        0.786177933216095,
        0.9572235941886902,
        0.9098218083381653,
        0.9055913090705872
      ],
      "min": [
        -0.6493282914161682,
        -0.955397367477417,
        -0.9385380744934082,
        0.005345374811440706
      ],
      "type": "VEC4"
    },
    {
      "bufferView": 3,
      "byteOffset": 5880,
      "componentType": 5126,
      "count": 2,
      "max": [
        14.624990463256836
      ],
      "min": [
        0.0
      ],
      "type": "SCALAR"
    },
    {
      "bufferView": 4,
      "byteOffset": 6156,
      "componentType": 5126,
      "count": 2,
      "max": [
        1.0000001192092896,
        1.0,
        1.0
      ],
      "min": [
        1.0000001192092896,
        1.0,
        1.0
      ],
      "type": "VEC3"
    },
    {
      "bufferView": 3,
      "byteOffset": 5888,
      "componentType": 5126,
      "count": 251,
      "max": [
        10.416666984558105
      ],
      "min": [
        0.0
      ],
      "type": "SCALAR"
    },
    {
      "bufferView": 5,
      "byteOffset": 15312,
      "componentType": 5126,
      "count": 251,
      "max": [
        0.5489693880081177,
        0.8716649413108826,
        0.6343448162078857,
        0.9897799491882324
      ],
      "min": [
        -0.5500379204750061,
        -0.8830227255821228,
        -0.4593048095703125,
        0.010144362226128578
      ],
      "type": "VEC4"
    },
    {
      "bufferView": 3,
      "byteOffset": 6892,
      "componentType": 5126,
      "count": 2,
      "max": [
        10.416666984558105
      ],
      "min": [
        0.0
      ],
      "type": "SCALAR"
    },
    {
      "bufferView": 4,
      "byteOffset": 6180,
      "componentType": 5126,
      "count": 2,
      "max": [
        1.3148294687271118,
        1.3148295879364014,
        1.3148295879364014
      ],
      "min": [
        1.3148293495178223,
        1.3148295879364014,
        1.3148293495178223
      ],
      "type": "VEC3"
    }
  ],
  "animations": [
    {
      "channels": [
        {
          "sampler": 0,
          "target": {
            "node": 5,
            "path": "translation"
          }
        },
        {
          "sampler": 1,
          "target": {
            "node": 5,
            "path": "rotation"
          }
        },
        {
          "sampler": 2,
          "target": {
            "node": 5,
            "path": "scale"
          }
        }
      ],
      "name": "CubeAction.054",
      "samplers": [
        {
          "input": 20,
          "interpolation": "LINEAR",
          "output": 21
        },
        {
          "input": 22,
          "interpolation": "LINEAR",
          "output": 23
        },
        {
          "input": 24,
          "interpolation": "LINEAR",
          "output": 25
        }
      ]
    },
    {
      "channels": [
        {
          "sampler": 0,
          "target": {
            "node": 7,
            "path": "translation"
          }
        },
        {
          "sampler": 1,
          "target": {
            "node": 7,
            "path": "rotation"
          }
        },
        {
          "sampler": 2,
          "target": {
            "node": 7,
            "path": "scale"
          }
        }
      ],
      "name": "CubeAction.055",
      "samplers": [
        {
          "input": 26,
          "interpolation": "LINEAR",
          "output": 27
        },
        {
          "input": 28,
          "interpolation": "LINEAR",
          "output": 29
        },
        {
          "input": 30,
          "interpolation": "LINEAR",
          "output": 31
        }
      ]
    },
    {
      "channels": [
        {
          "sampler": 0,
          "target": {
            "node": 9,
            "path": "rotation"
          }
        },
        {
          "sampler": 1,
          "target": {
            "node": 9,
            "path": "scale"
          }
        }
      ],
      "name": "CubeAction.038",
      "samplers": [
        {
          "input": 32,
          "interpolation": "LINEAR",
          "output": 33
        },
        {
          "input": 34,
          "interpolation": "LINEAR",
          "output": 35
        }
      ]
    },
    {
      "channels": [
        {
          "sampler": 0,
          "target": {
            "node": 11,
            "path": "rotation"
          }
        },
        {
          "sampler": 1,
          "target": {
            "node": 11,
            "path": "scale"
          }
        }
      ],
      "name": "CubeAction.040",
      "samplers": [
        {
          "input": 36,
          "interpolation": "LINEAR",
          "output": 37
        },
        {
          "input": 38,
          "interpolation": "LINEAR",
          "output": 39
        }
      ]
    }
  ],
  "asset": {
    "extras": {
      "author": "Nircraft. (https://sketchfab.com/Nircraft)",
      "license": "CC-BY-4.0 (http://creativecommons.org/licenses/by/4.0/)",
      "source": "https://sketchfab.com/3d-models/titan-tv-man-smoke-d-81155acba8ad46b3943dad10b1bb17ad",
      "title": "Titan Tv Man Smoke :D"
    },
    "generator": "Sketchfab-16.56.0",
    "version": "2.0"
  },
  "bufferViews": [
    {
      "buffer": 0,
      "byteLength": 7920,
      "name": "floatBufferViews",
      "target": 34963
    },
    {
      "buffer": 0,
      "byteLength": 10560,
      "byteOffset": 7920,
      "byteStride": 8,
      "name": "floatBufferViews",
      "target": 34962
    },
    {
      "buffer": 0,
      "byteLength": 31680,
      "byteOffset": 18480,
      "byteStride": 12,
      "name": "floatBufferViews",
      "target": 34962
    },
    {
      "buffer": 0,
      "byteLength": 6900,
      "byteOffset": 50160,
      "name": "floatBufferViews"
    },
    {
      "buffer": 0,
      "byteLength": 6204,
      "byteOffset": 57060,
      "byteStride": 12,
      "name": "floatBufferViews"
    },
    {
      "buffer": 0,
      "byteLength": 19328,
      "byteOffset": 63264,
      "byteStride": 16,
      "name": "floatBufferViews"
    }
  ],
  "buffers": [
    {
      "byteLength": 82592,
      "uri": "scene.bin"
    }
  ],
  "materials": [
    {
      "alphaMode": "BLEND",
      "doubleSided": true,
      "name": "Material.001",
      "pbrMetallicRoughness": {
        "baseColorFactor": [
          0.0,
          0.0,
          0.0,
          0.330435
        ],
        "roughnessFactor": 0.0
      }
    },
    {
      "alphaMode": "BLEND",
      "doubleSided": true,
      "name": "Material",
      "pbrMetallicRoughness": {
        "baseColorFactor": [
          0.0,
          0.0,
          0.0,
          0.0695652
        ]
      }
    }
  ],
  "meshes": [
    {
      "name": "Object_0",
      "primitives": [
        {
          "attributes": {
            "NORMAL": 1,
            "POSITION": 0,
            "TEXCOORD_0": 2
          },
          "indices": 3,
          "material": 0,
          "mode": 4
        }
      ]
    },
    {
      "name": "Object_1",
      "primitives": [
        {
          "attributes": {
            "NORMAL": 5,
            "POSITION": 4,
            "TEXCOORD_0": 6
          },
          "indices": 7,
          "material": 0,
          "mode": 4
        }
      ]
    },
    {
      "name": "Object_2",
      "primitives": [
        {
          "attributes": {
            "NORMAL": 9,
            "POSITION": 8,
            "TEXCOORD_0": 10
          },
          "indices": 11,
          "material": 1,
          "mode": 4
        }
      ]
    },
    {
      "name": "Object_3",
      "primitives": [
        {
          "attributes": {
            "NORMAL": 13,
            "POSITION": 12,
            "TEXCOORD_0": 14
          },
          "indices": 15,
          "material": 0,
          "mode": 4
        }
      ]
    },
    {
      "name": "Object_4",
      "primitives": [
        {
          "attributes": {
            "NORMAL": 17,
            "POSITION": 16,
            "TEXCOORD_0": 18
          },
          "indices": 19,
          "material": 1,
          "mode": 4
        }
      ]
    }
  ],
  "nodes": [
    {
      "children": [
        1
      ],
      "matrix": [
        1.0,
        0.0,
        0.0,
        0.0,
        0.0,
        0.00014722879859641047,
        -1.0,
        0.0,
        0.0,
        1.0,
        0.00014722879859641047,
        0.0,
        0.0,
        0.0,
        0.0,
        1.0
      ],
      "name": "Sketchfab_model"
    },
    {
      "children": [
        2
      ],
      "name": "root"
    },
    {
      "children": [
        3
      ],
      "matrix": [
        1.0,
        0.0,
        0.0,
        0.0,
        0.0,
        2.220446049250313e-16,
        1.0,
        0.0,
        0.0,
        -1.0,
        2.220446049250313e-16,
        0.0,
        0.0,
        0.0,
        0.0,
        1.0
      ],
      "name": "GLTF_SceneRootNode"
    },
    {
      "children": [
        4,
        5,
        7,
        9,
        11
      ],
      "name": "dis is smouk_4",
      "rotation": [
        -0.619876503944397,
        0.12191497534513474,
        -0.481114000082016,
        0.6077986359596252
      ],
      "translation": [
        0.2138746976852417,
        -0.7537489533424377,
        0.36177778244018555
      ]
    },
    {
      "mesh": 0,
      "name": "Object_4"
    },
    {
      "children": [
        6
      ],
      "name": "Cube.001_0",
      "rotation": [
        -0.4551500976085663,
        0.8692687153816223,
        0.0605001375079155,
        0.18316739797592163
      ],
      "translation": [
        -1.5936118364334106,
        0.9319937825202942,
        -0.12062811106443405
      ]
    },
    {
      "mesh": 1,
      "name": "Object_6"
    },
    {
      "children": [
        8
      ],
      "name": "Cube.002_1",
      "rotation": [
        0.22270604968070984,
        0.017650097608566284,
        0.4099377691745758,
        0.8843311071395874
      ],
      "scale": [
        1.3148294687271118,
        1.3148295879364014,
        1.3148293495178223
      ],
      "translation": [
        -1.3250393867492676,
        1.6542720794677734,
        0.7585713267326355
      ]
    },
    {
      "mesh": 2,
      "name": "Object_8"
    },
    {
      "children": [
        10
      ],
      "name": "Cube.013_2",
      "rotation": [
        -0.4551500976085663,
        0.8692687153816223,
        0.0605001375079155,
        0.18316739797592163
      ],
      "translation": [
        -1.5575335025787354,
        0.7874360680580139,
        -0.04469849914312363
      ]
    },
    {
      "mesh": 3,
      "name": "Object_10"
    },
    {
      "children": [
        12
      ],
      "name": "Cube.015_3",
      "rotation": [
        0.22270604968070984,
        0.017650097608566284,
        0.4099377691745758,
        0.8843311071395874
      ],
      "scale": [
        1.3148294687271118,
        1.3148295879364014,
        1.3148293495178223
      ],
      "translation": [
        -1.3250393867492676,
        1.6542720794677734,
        0.7585713267326355
      ]
    },
    {
      "mesh": 4,
      "name": "Object_12"
    }
  ],
  "scene": 0,
  "scenes": [
    {
      "name": "Sketchfab_Scene",
      "nodes": [
        0
      ]
    }
  ]
}
