{
  "accessors": [
    {
      "bufferView": 2,
      "componentType": 5126,
      "count": 98,
      "max": [
        4.253900051116943,
        1.3425970077514648,
        -3.287508964538574
      ],
      "min": [
        3.8557870388031006,
        1.1445939540863037,
        -3.552251100540161
      ],
      "type": "VEC3"
    },
    {
      "bufferView": 2,
      "byteOffset": 1176,
      "componentType": 5126,
      "count": 98,
      "max": [
        0.9999361038208008,
        0.9999850988388062,
        0.9999229907989502
      ],
      "min": [
        -0.9999361038208008,
        -0.9999850988388062,
        -0.00023499999952036887
      ],
      "type": "VEC3"
    },
    {
      "bufferView": 1,
      "componentType": 5126,
      "count": 98,
      "max": [
        0.4972040057182312,
        0.19908499717712402
      ],
      "min": [
        0.26781898736953735,
        0.004896000027656555
      ],
      "type": "VEC2"
    },
    {
      "bufferView": 0,
      "componentType": 5125,
      "count": 414,
      "type": "SCALAR"
    },
    {
      "bufferView": 2,
      "byteOffset": 2352,
      "componentType": 5126,
      "count": 910,
      "max": [
        4.245107173919678,
        1.3390049934387207,
        -1.315775990486145
      ],
      "min": [
        2.1512670516967773,
        0.10615900158882141,
        -3.3302550315856934
      ],
      "type": "VEC3"
    },
    {
      "bufferView": 2,
      "byteOffset": 13272,
      "componentType": 5126,
      "count": 910,
      "max": [
        0.9956387877464294,
        0.9998255372047424,
        0.9996640086174011
      ],
      "min": [
        -0.9963222146034241,
        -0.9998122453689575,
        -0.9999709725379944
      ],
      "type": "VEC3"
    },
    {
      "bufferView": 1,
      "byteOffset": 784,
      "componentType": 5126,
      "count": 910,
      "max": [
        0.9951170086860657,
        0.9217129945755005
      ],
      "min": [
        0.004883000161498785,
        0.004883000161498785
      ],
      "type": "VEC2"
    },
    {
      "bufferView": 0,
      "byteOffset": 1656,
      "componentType": 5125,
      "count": 4800,
      "type": "SCALAR"
    },
    {
      "bufferView": 2,
      "byteOffset": 24192,
      "componentType": 5126,
      "count": 736,
      "max": [
        4.340281009674072,
        1.946239948272705,
        -3.3765270709991455
      ],
      "min": [
        3.7421751022338867,
        1.0009820461273193,
        -3.7709550857543945
      ],
      "type": "VEC3"
    },
    {
      "bufferView": 2,
      "byteOffset": 33024,
      "componentType": 5126,
      "count": 736,
      "max": [
        1.0,
        1.0,
        1.0
      ],
      "min": [
        -1.0,
        -1.0,
        0.0
      ],
      "type": "VEC3"
    },
    {
      "bufferView": 1,
      "byteOffset": 8064,
      "componentType": 5126,
      "count": 736,
      "max": [
        0.8959500193595886,
        0.3778899908065796
      ],
      "min": [
        0.004883000161498785,
        0.004900000058114529
      ],
      "type": "VEC2"
    },
    {
      "bufferView": 0,
      "byteOffset": 20856,
      "componentType": 5125,
      "count": 2886,
      "type": "SCALAR"
    },
    {
      "bufferView": 2,
      "byteOffset": 41856,
      "componentType": 5126,
      "count": 216,
      "max": [
        7.020140171051025,
        7.7233991622924805,
        6.047025203704834
      ],
      "min": [
        -7.020140171051025,
        -0.44442299008369446,
        -4.567965030670166
      ],
      "type": "VEC3"
    },
    {
      "bufferView": 2,
      "byteOffset": 44448,
      "componentType": 5126,
      "count": 216,
      "max": [
        0.9979242086410522,
        0.999941349029541,
        0.9999786615371704
      ],
      "min": [
        -0.9979293346405029,
        -0.9999827742576599,
        -0.9999816417694092
      ],
      "type": "VEC3"
    },
    {
      "bufferView": 1,
      "byteOffset": 13952,
      "componentType": 5126,
      "count": 216,
      "max": [
        0.8976989984512329,
        0.9951170086860657
      ],
      "min": [
        0.004883000161498785,
        0.004883000161498785
      ],
      "type": "VEC2"
    },
    {
      "bufferView": 0,
      "byteOffset": 32400,
      "componentType": 5125,
      "count": 828,
      "type": "SCALAR"
    },
    {
      "bufferView": 2,
      "byteOffset": 47040,
      "componentType": 5126,
      "count": 1361,
      "max": [
        0.31230100989341736,
        5.72322416305542,
        0.15575699508190155
      ],
      "min": [
        -1.064007043838501,
        4.722699165344238,
        -0.12591199576854706
      ],
      "type": "VEC3"
    },
    {
      "bufferView": 2,
      "byteOffset": 63372,
      "componentType": 5126,
      "count": 1361,
      "max": [
        1.0,
        1.0,
        1.0
      ],
      "min": [
        -1.0,
        -1.0,
        -1.0
      ],
      "type": "VEC3"
    },
    {
      "bufferView": 1,
      "byteOffset": 15680,
      "componentType": 5126,
      "count": 1361,
      "max": [
        0.8401730060577393,
        0.7945960164070129
      ],
      "min": [
        0.0048790001310408115,
        0.004889999981969595
      ],
      "type": "VEC2"
    },
    {
      "bufferView": 0,
      "byteOffset": 35712,
      "componentType": 5125,
      "count": 6960,
      "type": "SCALAR"
    },
    {
      "bufferView": 2,
      "byteOffset": 79704,
      "componentType": 5126,
      "count": 812,
      "max": [
        2.7321159839630127,
        2.0956900119781494,
        1.4575200080871582
      ],
      "min": [
        1.9728649854660034,
        0.9001219868659973,
        1.317836046218872
      ],
      "type": "VEC3"
    },
    {
      "bufferView": 2,
      "byteOffset": 89448,
      "componentType": 5126,
      "count": 812,
      "max": [
        1.0,
        1.0,
        0.9999872446060181
      ],
      "min": [
        -1.0,
        -1.0,
        0.0
      ],
      "type": "VEC3"
    },
    {
      "bufferView": 1,
      "byteOffset": 26568,
      "componentType": 5126,
      "count": 812,
      "max": [
        0.5329970121383667,
        0.4228169918060303
      ],
      "min": [
        0.004883000161498785,
        0.004902999848127365
      ],
      "type": "VEC2"
    },
    {
      "bufferView": 0,
      "byteOffset": 63552,
      "componentType": 5125,
      "count": 3186,
      "type": "SCALAR"
    },
    {
      "bufferView": 2,
      "byteOffset": 99192,
      "componentType": 5126,
      "count": 290,
      "max": [
        2.9663970470428467,
        4.635251998901367,
        1.3731130361557007
      ],
      "min": [
        -2.131706953048706,
        1.3332550525665283,
        -1.3742010593414307
      ],
      "type": "VEC3"
    },
    {
      "bufferView": 2,
      "byteOffset": 102672,
      "componentType": 5126,
      "count": 290,
      "max": [
        0.9998775124549866,
        0.9998775124549866,
        0.999967634677887
      ],
      "min": [
        -0.9998775720596313,
        -0.9998775720596313,
        -1.0
      ],
      "type": "VEC3"
    },
    {
      "bufferView": 1,
      "byteOffset": 33064,
      "componentType": 5126,
      "count": 290,
      "max": [
        0.9951170086860657,
        0.8756179809570313
      ],
      "min": [
        0.004883000161498785,
        0.004883000161498785
      ],
      "type": "VEC2"
    },
    {
      "bufferView": 0,
      "byteOffset": 76296,
      "componentType": 5125,
      "count": 1152,
      "type": "SCALAR"
    },
    {
      "bufferView": 2,
      "byteOffset": 106152,
      "componentType": 5126,
      "count": 404,
      "max": [
        2.6388280391693115,
        4.233128070831299,
        1.5531920194625854
      ],
      "min": [
        2.1028759479522705,
        2.999829053878784,
        1.3023910522460938
      ],
      "type": "VEC3"
    },
    {
      "bufferView": 2,
      "byteOffset": 111000,
      "componentType": 5126,
      "count": 404,
      "max": [
        1.0,
        1.0,
        1.0
      ],
      "min": [
        -1.0,
        -1.0,
        -0.013477993197739124
      ],
      "type": "VEC3"
    },
    {
      "bufferView": 1,
      "byteOffset": 35384,
      "componentType": 5126,
      "count": 404,
      "max": [
        0.9534419775009155,
        0.7267259955406189
      ],
      "min": [
        0.174468994140625,
        0.004883000161498785
      ],
      "type": "VEC2"
    },
    {
      "bufferView": 0,
      "byteOffset": 80904,
      "componentType": 5125,
      "count": 1488,
      "type": "SCALAR"
    },
    {
      "bufferView": 2,
      "byteOffset": 115848,
      "componentType": 5126,
      "count": 176,
      "max": [
        0.44392699003219604,
        4.9785590171813965,
        0.9689139723777771
      ],
      "min": [
        -1.4939019680023193,
        4.620845794677734,
        -0.9689139723777771
      ],
      "type": "VEC3"
    },
    {
      "bufferView": 2,
      "byteOffset": 117960,
      "componentType": 5126,
      "count": 176,
      "max": [
        0.9999847412109375,
        0.9999847412109375,
        1.0
      ],
      "min": [
        -0.9999847412109375,
        -0.9999266266822815,
        -1.0
      ],
      "type": "VEC3"
    },
    {
      "bufferView": 1,
      "byteOffset": 38616,
      "componentType": 5126,
      "count": 176,
      "max": [
        0.6633350253105164,
        0.6623010039329529
      ],
      "min": [
        0.004883000161498785,
        0.004898000042885542
      ],
      "type": "VEC2"
    },
    {
      "bufferView": 0,
      "byteOffset": 86856,
      "componentType": 5125,
      "count": 594,
      "type": "SCALAR"
    },
    {
      "bufferView": 2,
      "byteOffset": 120072,
      "componentType": 5126,
      "count": 240,
      "max": [
        0.18287800252437592,
        5.580243110656738,
        0.7421919703483582
      ],
      "min": [
        -1.3015069961547852,
        4.838050842285156,
        -0.7421919703483582
      ],
      "type": "VEC3"
    },
    {
      "bufferView": 2,
      "byteOffset": 122952,
      "componentType": 5126,
      "count": 240,
      "max": [
        0.9969173669815063,
        1.0,
        0.9969173669815063
      ],
      "min": [
        -0.9969173669815063,
        0.07845895737409592,
        -0.9969173669815063
      ],
      "type": "VEC3"
    },
    {
      "bufferView": 1,
      "byteOffset": 40024,
      "componentType": 5126,
      "count": 240,
      "max": [
        0.9951170086860657,
        0.950751006603241
      ],
      "min": [
        0.6196309924125671,
        0.004883000161498785
      ],
      "type": "VEC2"
    },
    {
      "bufferView": 0,
      "byteOffset": 89232,
      "componentType": 5125,
      "count": 1140,
      "type": "SCALAR"
    },
    {
      "bufferView": 2,
      "byteOffset": 125832,
      "componentType": 5126,
      "count": 208,
      "max": [
        0.09370200335979462,
        4.871157169342041,
        1.022057056427002
      ],
      "min": [
        -0.5566949844360352,
        4.724343776702881,
        0.9529370069503784
      ],
      "type": "VEC3"
    },
    {
      "bufferView": 2,
      "byteOffset": 128328,
      "componentType": 5126,
      "count": 208,
      "max": [
        1.0,
        1.0,
        1.0
      ],
      "min": [
        -1.0,
        -1.0,
        0.0
      ],
      "type": "VEC3"
    },
    {
      "bufferView": 1,
      "byteOffset": 41944,
      "componentType": 5126,
      "count": 208,
      "max": [
        0.6808670163154602,
        0.04914600029587746
      ],
      "min": [
        0.004883000161498785,
        0.004889999981969595
      ],
      "type": "VEC2"
    },
    {
      "bufferView": 0,
      "byteOffset": 93792,
      "componentType": 5125,
      "count": 840,
      "type": "SCALAR"
    },
    {
      "bufferView": 2,
      "byteOffset": 130824,
      "componentType": 5126,
      "count": 484,
      "max": [
        2.998250961303711,
        1.5852279663085938,
        1.2810189723968506
      ],
      "min": [
        -2.132261037826538,
        0.32638800144195557,
        -1.2810189723968506
      ],
      "type": "VEC3"
    },
    {
      "bufferView": 2,
      "byteOffset": 136632,
      "componentType": 5126,
      "count": 484,
      "max": [
        0.9812518954277039,
        0.24517406523227692,
        0.9901962280273438
      ],
      "min": [
        -0.9812520146369934,
        -0.9963871240615845,
        -0.9901962280273438
      ],
      "type": "VEC3"
    },
    {
      "bufferView": 1,
      "byteOffset": 43608,
      "componentType": 5126,
      "count": 484,
      "max": [
        0.597108006477356,
        0.9963780045509338
      ],
      "min": [
        0.004650999791920185,
        0.004902999848127365
      ],
      "type": "VEC2"
    },
    {
      "bufferView": 0,
      "byteOffset": 97152,
      "componentType": 5125,
      "count": 1680,
      "type": "SCALAR"
    }
  ],
  "asset": {
    "extras": {
      "author": "Drawnah (https://sketchfab.com/EzequielMunoz)",
      "license": "CC-BY-4.0 (http://creativecommons.org/licenses/by/4.0/)",
      "source": "https://sketchfab.com/3d-models/the-simpsons-tv-97bf00ffd982411ba3e2a60d67e828ba",
      "title": "The Simpson's TV"
    },
    "generator": "Sketchfab-13.81.0",
    "version": "2.0"
  },
  "bufferViews": [
    {
      "buffer": 0,
      "byteLength": 103872,
      "name": "floatBufferViews",
      "target": 34963
    },
    {
      "buffer": 0,
      "byteLength": 47480,
      "byteOffset": 103872,
      "byteStride": 8,
      "name": "floatBufferViews",
      "target": 34962
    },
    {
      "buffer": 0,
      "byteLength": 142440,
      "byteOffset": 151352,
      "byteStride": 12,
      "name": "floatBufferViews",
      "target": 34962
    }
  ],
  "buffers": [
    {
      "byteLength": 293792,
      "uri": "scene.bin"
    }
  ],
  "extensionsUsed": [
    "KHR_materials_unlit"
  ],
  "images": [
    {
      "uri": "textures/Mat_Tele_baseColor.jpeg"
    },
    {
      "uri": "textures/Mat_Addons_baseColor.jpeg"
    },
    {
      "uri": "textures/Mat_Modem_baseColor.jpeg"
    },
    {
      "uri": "textures/Mat_Piso_baseColor.jpeg"
    },
    {
      "uri": "textures/Mat_Cable_baseColor.jpeg"
    }
  ],
  "materials": [
    {
      "doubleSided": true,
      "extensions": {
        "KHR_materials_unlit": {}
      },
      "name": "Mat_Tele",
      "pbrMetallicRoughness": {
        "baseColorTexture": {
          "index": 0
        },
        "metallicFactor": 0.0
      }
    },
    {
      "doubleSided": true,
      "extensions": {
        "KHR_materials_unlit": {}
      },
      "name": "Mat_Addons",
      "pbrMetallicRoughness": {
        "baseColorTexture": {
          "index": 1
        },
        "metallicFactor": 0.0
      }
    },
    {
      "doubleSided": true,
      "extensions": {
        "KHR_materials_unlit": {}
      },
      "name": "Mat_Modem",
      "pbrMetallicRoughness": {
        "baseColorTexture": {
          "index": 2
        },
        "metallicFactor": 0.0
      }
    },
    {
      "doubleSided": true,
      "extensions": {
        "KHR_materials_unlit": {}
      },
      "name": "Mat_Piso",
      "pbrMetallicRoughness": {
        "baseColorFactor": [
          0.38247735612146627,
          0.38247735612146627,
          0.38247735612146627,
          1.0
        ],
        "baseColorTexture": {
          "index": 3
        },
        "metallicFactor": 0.0
      }
    },
    {
      "doubleSided": true,
      "extensions": {
        "KHR_materials_unlit": {}
      },
      "name": "Mat_Cable",
      "pbrMetallicRoughness": {
        "baseColorTexture": {
          "index": 4
        },
        "metallicFactor": 0.0
      }
    }
  ],
  "meshes": [
    {
      "name": "defaultMaterial",
      "primitives": [
        {
          "attributes": {
            "NORMAL": 1,
            "POSITION": 0,
            "TEXCOORD_0": 2
          },
          "indices": 3,
          "material": 4,
          "mode": 4
        }
      ]
    },
    {
      "name": "defaultMaterial",
      "primitives": [
        {
          "attributes": {
            "NORMAL": 5,
            "POSITION": 4,
            "TEXCOORD_0": 6
          },
          "indices": 7,
          "material": 4,
          "mode": 4
        }
      ]
    },
    {
      "name": "defaultMaterial",
      "primitives": [
        {
          "attributes": {
            "NORMAL": 9,
            "POSITION": 8,
            "TEXCOORD_0": 10
          },
          "indices": 11,
          "material": 4,
          "mode": 4
        }
      ]
    },
    {
      "name": "defaultMaterial",
      "primitives": [
        {
          "attributes": {
            "NORMAL": 13,
            "POSITION": 12,
            "TEXCOORD_0": 14
          },
          "indices": 15,
          "material": 3,
          "mode": 4
        }
      ]
    },
    {
      "name": "defaultMaterial",
      "primitives": [
        {
          "attributes": {
            "NORMAL": 17,
            "POSITION": 16,
            "TEXCOORD_0": 18
          },
          "indices": 19,
          "material": 2,
          "mode": 4
        }
      ]
    },
    {
      "name": "defaultMaterial",
      "primitives": [
        {
          "attributes": {
            "NORMAL": 21,
            "POSITION": 20,
            "TEXCOORD_0": 22
          },
          "indices": 23,
          "material": 1,
          "mode": 4
        }
      ]
    },
    {
      "name": "defaultMaterial",
      "primitives": [
        {
          "attributes": {
            "NORMAL": 25,
            "POSITION": 24,
            "TEXCOORD_0": 26
          },
          "indices": 27,
          "material": 0,
          "mode": 4
        }
      ]
    },
    {
      "name": "defaultMaterial",
      "primitives": [
        {
          "attributes": {
            "NORMAL": 29,
            "POSITION": 28,
            "TEXCOORD_0": 30
          },
          "indices": 31,
          "material": 1,
          "mode": 4
        }
      ]
    },
    {
      "name": "defaultMaterial",
      "primitives": [
        {
          "attributes": {
            "NORMAL": 33,
            "POSITION": 32,
            "TEXCOORD_0": 34
          },
          "indices": 35,
          "material": 2,
          "mode": 4
        }
      ]
    },
    {
      "name": "defaultMaterial",
      "primitives": [
        {
          "attributes": {
            "NORMAL": 37,
            "POSITION": 36,
            "TEXCOORD_0": 38
          },
          "indices": 39,
          "material": 2,
          "mode": 4
        }
      ]
    },
    {
      "name": "defaultMaterial",
      "primitives": [
        {
          "attributes": {
            "NORMAL": 41,
            "POSITION": 40,
            "TEXCOORD_0": 42
          },
          "indices": 43,
          "material": 2,
          "mode": 4
        }
      ]
    },
    {
      "name": "defaultMaterial",
      "primitives": [
        {
          "attributes": {
            "NORMAL": 45,
            "POSITION": 44,
            "TEXCOORD_0": 46
          },
          "indices": 47,
          "material": 1,
          "mode": 4
        }
      ]
    }
  ],
  "nodes": [
    {
      "children": [
        1
      ],
      "matrix": [
        1.0,
        0.0,
        0.0,
        0.0,
        0.0,
        2.220446049250313e-16,
        -1.0,
        0.0,
        0.0,
        1.0,
        2.220446049250313e-16,
        0.0,
        0.0,
        0.0,
        0.0,
        1.0
      ],
      "name": "Sketchfab_model"
    },
    {
      "children": [
        2,
        4,
        6,
        8,
        10,
        12,
        14
      ],
      "matrix": [
        1.0,
        0.0,
        0.0,
        0.0,
        0.0,
        -4.371139006309477e-08,
        0.999999999999999,
        0.0,
        0.0,
        -0.999999999999999,
        -4.371139006309477e-08,
        0.0,
        0.0,
        0.0,
        0.0,
        1.0
      ],
      "name": "Collada visual scene group"
    },
    {
      "children": [
        3
      ],
      "name": "Conector"
    },
    {
      "mesh": 0,
      "name": "defaultMaterial"
    },
    {
      "children": [
        5
      ],
      "name": "Cable"
    },
    {
      "mesh": 1,
      "name": "defaultMaterial"
    },
    {
      "children": [
        7
      ],
      "name": "Enchufe"
    },
    {
      "mesh": 2,
      "name": "defaultMaterial"
    },
    {
      "children": [
        9
      ],
      "name": "Piso"
    },
    {
      "mesh": 3,
      "name": "defaultMaterial"
    },
    {
      "children": [
        11
      ],
      "name": "Antenas"
    },
    {
      "mesh": 4,
      "name": "defaultMaterial"
    },
    {
      "children": [
        13
      ],
      "name": "Reja"
    },
    {
      "mesh": 5,
      "name": "defaultMaterial"
    },
    {
      "children": [
        15,
        17,
        19,
        21,
        23,
        25
      ],
      "matrix": [
        1.0,
        0.0,
        0.0,
        0.0,
        0.0,
        1.0,
        0.0,
        0.0,
        0.0,
        0.0,
        1.0,
        0.0,
        0.0,
        -0.736178,
        0.0,
        1.0
      ],
      "name": "Tele"
    },
    {
      "children": [
        16
      ],
      "name": "Cuerpo"
    },
    {
      "mesh": 6,
      "name": "defaultMaterial"
    },
    {
      "children": [
        18
      ],
      "name": "Boton2"
    },
    {
      "mesh": 7,
      "name": "defaultMaterial"
    },
    {
      "children": [
        20
      ],
      "name": "Modem"
    },
    {
      "mesh": 8,
      "name": "defaultMaterial"
    },
    {
      "children": [
        22
      ],
      "name": "Antena_Base"
    },
    {
      "mesh": 9,
      "name": "defaultMaterial"
    },
    {
      "children": [
        24
      ],
      "name": "Boton_Modem"
    },
    {
      "mesh": 10,
      "name": "defaultMaterial"
    },
    {
      "children": [
        26
      ],
      "name": "Patas"
    },
    {
      "mesh": 11,
      "name": "defaultMaterial"
    }
  ],
  "samplers": [
    {
      "magFilter": 9729,
      "minFilter": 9987,
      "wrapS": 10497,
      "wrapT": 10497
    }
  ],
  "scene": 0,
  "scenes": [
    {
      "name": "Sketchfab_Scene",
      "nodes": [
        0
      ]
    }
  ],
  "textures": [
    {
      "sampler": 0,
      "source": 0
    },
    {
      "sampler": 0,
      "source": 1
    },
    {
      "sampler": 0,
      "source": 2
    },
    {
      "sampler": 0,
      "source": 3
    },
    {
      "sampler": 0,
      "source": 4
    }
  ]
}
